<mxfile host="app.diagrams.net" modified="2021-10-04T13:30:37.885Z" agent="5.0 (Windows NT 10.0; WOW64) AppleWebKit/537.36 (KHTML, like Gecko) Chrome/94.0.4606.61 Safari/537.36" etag="ijbpj10DQgKSy10DrLBX" version="15.4.1" type="github">
  <diagram id="MA4EWf2XGoRafROJINRz" name="Diagramme d&#39;utilisations">
    <mxGraphModel dx="824" dy="885" grid="1" gridSize="10" guides="1" tooltips="1" connect="1" arrows="1" fold="1" page="1" pageScale="1" pageWidth="827" pageHeight="1169" math="0" shadow="0">
      <root>
        <mxCell id="0" />
        <mxCell id="1" parent="0" />
        <mxCell id="Cb7AMag5DuTGzztELXbn-1" value="" style="rounded=0;whiteSpace=wrap;html=1;" vertex="1" parent="1">
          <mxGeometry x="110" y="10" width="1020" height="1090" as="geometry" />
        </mxCell>
        <mxCell id="Cb7AMag5DuTGzztELXbn-2" value="Super Admin&lt;br&gt;(Sylvie PECOURT)" style="shape=umlActor;verticalLabelPosition=bottom;verticalAlign=top;html=1;outlineConnect=0;" vertex="1" parent="1">
          <mxGeometry x="50" y="120" width="30" height="60" as="geometry" />
        </mxCell>
        <mxCell id="Cb7AMag5DuTGzztELXbn-13" style="edgeStyle=orthogonalEdgeStyle;rounded=0;orthogonalLoop=1;jettySize=auto;html=1;exitX=0.5;exitY=0.5;exitDx=0;exitDy=0;exitPerimeter=0;entryX=0.5;entryY=0;entryDx=0;entryDy=0;entryPerimeter=0;" edge="1" parent="1" source="Cb7AMag5DuTGzztELXbn-5" target="Cb7AMag5DuTGzztELXbn-4">
          <mxGeometry relative="1" as="geometry">
            <mxPoint x="90" y="490" as="targetPoint" />
          </mxGeometry>
        </mxCell>
        <mxCell id="Cb7AMag5DuTGzztELXbn-4" value="Modificateur&lt;br&gt;(Agent Mairie)" style="shape=umlActor;verticalLabelPosition=bottom;verticalAlign=top;html=1;outlineConnect=0;" vertex="1" parent="1">
          <mxGeometry x="50" y="940" width="30" height="60" as="geometry" />
        </mxCell>
        <mxCell id="Cb7AMag5DuTGzztELXbn-14" style="edgeStyle=orthogonalEdgeStyle;rounded=0;orthogonalLoop=1;jettySize=auto;html=1;exitX=0.5;exitY=0.5;exitDx=0;exitDy=0;exitPerimeter=0;entryX=0.5;entryY=0;entryDx=0;entryDy=0;entryPerimeter=0;" edge="1" parent="1" source="Cb7AMag5DuTGzztELXbn-2" target="Cb7AMag5DuTGzztELXbn-5">
          <mxGeometry relative="1" as="geometry">
            <mxPoint x="90" y="270" as="targetPoint" />
          </mxGeometry>
        </mxCell>
        <mxCell id="Cb7AMag5DuTGzztELXbn-5" value="Admin&lt;br&gt;(A.HEDIN)" style="shape=umlActor;verticalLabelPosition=bottom;verticalAlign=top;html=1;outlineConnect=0;" vertex="1" parent="1">
          <mxGeometry x="50" y="570" width="30" height="60" as="geometry" />
        </mxCell>
        <mxCell id="Cb7AMag5DuTGzztELXbn-19" value="Rechercher" style="ellipse;whiteSpace=wrap;html=1;" vertex="1" parent="1">
          <mxGeometry x="315" y="110" width="110" height="50" as="geometry" />
        </mxCell>
        <mxCell id="Cb7AMag5DuTGzztELXbn-21" value="Exporter des données" style="ellipse;whiteSpace=wrap;html=1;" vertex="1" parent="1">
          <mxGeometry x="520" y="80" width="90" height="40" as="geometry" />
        </mxCell>
        <mxCell id="Cb7AMag5DuTGzztELXbn-22" value="Modifier" style="ellipse;whiteSpace=wrap;html=1;" vertex="1" parent="1">
          <mxGeometry x="530" y="230" width="90" height="40" as="geometry" />
        </mxCell>
        <mxCell id="Cb7AMag5DuTGzztELXbn-23" value="Supprimer" style="ellipse;whiteSpace=wrap;html=1;" vertex="1" parent="1">
          <mxGeometry x="530" y="270" width="90" height="40" as="geometry" />
        </mxCell>
        <mxCell id="Cb7AMag5DuTGzztELXbn-31" value="Créer" style="ellipse;whiteSpace=wrap;html=1;" vertex="1" parent="1">
          <mxGeometry x="530" y="190" width="90" height="40" as="geometry" />
        </mxCell>
        <mxCell id="Cb7AMag5DuTGzztELXbn-33" value="Gestion utilisateurs Interface" style="ellipse;whiteSpace=wrap;html=1;" vertex="1" parent="1">
          <mxGeometry x="170" y="55" width="110" height="65" as="geometry" />
        </mxCell>
        <mxCell id="Cb7AMag5DuTGzztELXbn-34" value="Gestion utilisateurs carte cim." style="ellipse;whiteSpace=wrap;html=1;" vertex="1" parent="1">
          <mxGeometry x="150" y="945" width="100" height="50" as="geometry" />
        </mxCell>
        <mxCell id="Cb7AMag5DuTGzztELXbn-35" value="Gestion cimetieres&lt;br&gt;metropole" style="ellipse;whiteSpace=wrap;html=1;" vertex="1" parent="1">
          <mxGeometry x="170" y="240" width="110" height="60" as="geometry" />
        </mxCell>
        <mxCell id="Cb7AMag5DuTGzztELXbn-36" value="Activites utilisateurs interface" style="ellipse;whiteSpace=wrap;html=1;" vertex="1" parent="1">
          <mxGeometry x="170" y="150" width="110" height="60" as="geometry" />
        </mxCell>
        <mxCell id="Cb7AMag5DuTGzztELXbn-37" value="Log in" style="ellipse;whiteSpace=wrap;html=1;" vertex="1" parent="1">
          <mxGeometry x="720" y="185" width="120" height="50" as="geometry" />
        </mxCell>
        <mxCell id="Cb7AMag5DuTGzztELXbn-82" value="Modifier" style="ellipse;whiteSpace=wrap;html=1;" vertex="1" parent="1">
          <mxGeometry x="640" y="920" width="90" height="40" as="geometry" />
        </mxCell>
        <mxCell id="Cb7AMag5DuTGzztELXbn-83" value="Exporter des données" style="ellipse;whiteSpace=wrap;html=1;" vertex="1" parent="1">
          <mxGeometry x="640" y="985" width="90" height="40" as="geometry" />
        </mxCell>
        <mxCell id="Cb7AMag5DuTGzztELXbn-84" value="Extends" style="endArrow=block;endSize=16;endFill=0;html=1;rounded=0;entryX=0;entryY=0.5;entryDx=0;entryDy=0;exitX=1;exitY=0.5;exitDx=0;exitDy=0;" edge="1" parent="1" source="Cb7AMag5DuTGzztELXbn-97" target="Cb7AMag5DuTGzztELXbn-83">
          <mxGeometry width="160" relative="1" as="geometry">
            <mxPoint x="250" y="970" as="sourcePoint" />
            <mxPoint x="495.6801948466052" y="680.8578643762689" as="targetPoint" />
          </mxGeometry>
        </mxCell>
        <mxCell id="Cb7AMag5DuTGzztELXbn-86" value="" style="endArrow=open;endFill=1;endSize=12;html=1;rounded=0;exitX=0.5;exitY=0.5;exitDx=0;exitDy=0;entryX=0;entryY=0.5;entryDx=0;entryDy=0;exitPerimeter=0;" edge="1" parent="1" source="Cb7AMag5DuTGzztELXbn-4" target="Cb7AMag5DuTGzztELXbn-34">
          <mxGeometry width="160" relative="1" as="geometry">
            <mxPoint x="135.91" y="760" as="sourcePoint" />
            <mxPoint x="280.0006075556678" y="927.2290465721637" as="targetPoint" />
            <Array as="points" />
          </mxGeometry>
        </mxCell>
        <mxCell id="Cb7AMag5DuTGzztELXbn-87" value="Log in" style="ellipse;whiteSpace=wrap;html=1;" vertex="1" parent="1">
          <mxGeometry x="840" y="950" width="120" height="50" as="geometry" />
        </mxCell>
        <mxCell id="Cb7AMag5DuTGzztELXbn-88" value="Use" style="endArrow=open;endSize=12;dashed=1;html=1;rounded=0;exitX=1;exitY=0.5;exitDx=0;exitDy=0;entryX=0;entryY=0.5;entryDx=0;entryDy=0;" edge="1" parent="1" source="Cb7AMag5DuTGzztELXbn-82" target="Cb7AMag5DuTGzztELXbn-87">
          <mxGeometry width="160" relative="1" as="geometry">
            <mxPoint x="717.4300000000001" y="857.3199999999999" as="sourcePoint" />
            <mxPoint x="812.5035931288071" y="719.9976695296639" as="targetPoint" />
          </mxGeometry>
        </mxCell>
        <mxCell id="Cb7AMag5DuTGzztELXbn-89" value="Use" style="endArrow=open;endSize=12;dashed=1;html=1;rounded=0;exitX=1;exitY=0.5;exitDx=0;exitDy=0;entryX=0;entryY=0.5;entryDx=0;entryDy=0;" edge="1" parent="1" source="Cb7AMag5DuTGzztELXbn-83" target="Cb7AMag5DuTGzztELXbn-87">
          <mxGeometry width="160" relative="1" as="geometry">
            <mxPoint x="722.5" y="1040" as="sourcePoint" />
            <mxPoint x="817.5735931288071" y="902.677669529664" as="targetPoint" />
          </mxGeometry>
        </mxCell>
        <mxCell id="Cb7AMag5DuTGzztELXbn-90" value="Gestion utilisateurs carte cim." style="ellipse;whiteSpace=wrap;html=1;" vertex="1" parent="1">
          <mxGeometry x="192.5" y="600" width="100" height="50" as="geometry" />
        </mxCell>
        <mxCell id="Cb7AMag5DuTGzztELXbn-91" value="Supprimer" style="ellipse;whiteSpace=wrap;html=1;" vertex="1" parent="1">
          <mxGeometry x="700" y="560" width="90" height="40" as="geometry" />
        </mxCell>
        <mxCell id="Cb7AMag5DuTGzztELXbn-92" value="Rechercher" style="ellipse;whiteSpace=wrap;html=1;" vertex="1" parent="1">
          <mxGeometry x="310" y="945" width="120" height="50" as="geometry" />
        </mxCell>
        <mxCell id="Cb7AMag5DuTGzztELXbn-93" value="" style="endArrow=open;endFill=1;endSize=12;html=1;rounded=0;exitX=1;exitY=0.5;exitDx=0;exitDy=0;entryX=0;entryY=0.5;entryDx=0;entryDy=0;" edge="1" parent="1" source="Cb7AMag5DuTGzztELXbn-34" target="Cb7AMag5DuTGzztELXbn-92">
          <mxGeometry width="160" relative="1" as="geometry">
            <mxPoint x="270" y="1000" as="sourcePoint" />
            <mxPoint x="355" y="1000" as="targetPoint" />
            <Array as="points" />
          </mxGeometry>
        </mxCell>
        <mxCell id="Cb7AMag5DuTGzztELXbn-94" value="" style="endArrow=open;endFill=1;endSize=12;html=1;rounded=0;exitX=1;exitY=0.5;exitDx=0;exitDy=0;entryX=0;entryY=0.5;entryDx=0;entryDy=0;" edge="1" parent="1" source="Cb7AMag5DuTGzztELXbn-92" target="Cb7AMag5DuTGzztELXbn-96">
          <mxGeometry width="160" relative="1" as="geometry">
            <mxPoint x="442.5" y="964.5" as="sourcePoint" />
            <mxPoint x="503" y="965" as="targetPoint" />
            <Array as="points" />
          </mxGeometry>
        </mxCell>
        <mxCell id="Cb7AMag5DuTGzztELXbn-96" value="Individu" style="ellipse;whiteSpace=wrap;html=1;" vertex="1" parent="1">
          <mxGeometry x="470" y="910" width="90" height="40" as="geometry" />
        </mxCell>
        <mxCell id="Cb7AMag5DuTGzztELXbn-97" value="Groupe&lt;br&gt;" style="ellipse;whiteSpace=wrap;html=1;" vertex="1" parent="1">
          <mxGeometry x="470" y="980" width="90" height="40" as="geometry" />
        </mxCell>
        <mxCell id="Cb7AMag5DuTGzztELXbn-98" value="" style="endArrow=open;endFill=1;endSize=12;html=1;rounded=0;exitX=1;exitY=0.5;exitDx=0;exitDy=0;entryX=0;entryY=0.5;entryDx=0;entryDy=0;" edge="1" parent="1" source="Cb7AMag5DuTGzztELXbn-92" target="Cb7AMag5DuTGzztELXbn-97">
          <mxGeometry width="160" relative="1" as="geometry">
            <mxPoint x="440" y="980" as="sourcePoint" />
            <mxPoint x="500" y="910" as="targetPoint" />
            <Array as="points" />
          </mxGeometry>
        </mxCell>
        <mxCell id="Cb7AMag5DuTGzztELXbn-99" value="Extends" style="endArrow=block;endSize=16;endFill=0;html=1;rounded=0;entryX=0.033;entryY=0.35;entryDx=0;entryDy=0;exitX=1;exitY=0.5;exitDx=0;exitDy=0;entryPerimeter=0;" edge="1" parent="1" source="Cb7AMag5DuTGzztELXbn-96" target="Cb7AMag5DuTGzztELXbn-82">
          <mxGeometry x="-0.0976" y="-6" width="160" relative="1" as="geometry">
            <mxPoint x="575" y="880" as="sourcePoint" />
            <mxPoint x="665" y="890" as="targetPoint" />
            <mxPoint as="offset" />
          </mxGeometry>
        </mxCell>
        <mxCell id="Cb7AMag5DuTGzztELXbn-100" value="Rechercher" style="ellipse;whiteSpace=wrap;html=1;" vertex="1" parent="1">
          <mxGeometry x="340" y="600" width="120" height="50" as="geometry" />
        </mxCell>
        <mxCell id="Cb7AMag5DuTGzztELXbn-101" value="Individu" style="ellipse;whiteSpace=wrap;html=1;" vertex="1" parent="1">
          <mxGeometry x="510" y="560" width="90" height="40" as="geometry" />
        </mxCell>
        <mxCell id="Cb7AMag5DuTGzztELXbn-102" value="Groupe&lt;br&gt;" style="ellipse;whiteSpace=wrap;html=1;" vertex="1" parent="1">
          <mxGeometry x="510" y="645" width="90" height="40" as="geometry" />
        </mxCell>
        <mxCell id="Cb7AMag5DuTGzztELXbn-103" value="" style="endArrow=open;endFill=1;endSize=12;html=1;rounded=0;exitX=0.5;exitY=0.5;exitDx=0;exitDy=0;entryX=0;entryY=0.5;entryDx=0;entryDy=0;exitPerimeter=0;" edge="1" parent="1" source="Cb7AMag5DuTGzztELXbn-5" target="Cb7AMag5DuTGzztELXbn-90">
          <mxGeometry width="160" relative="1" as="geometry">
            <mxPoint x="120" y="620" as="sourcePoint" />
            <mxPoint x="180" y="620" as="targetPoint" />
            <Array as="points" />
          </mxGeometry>
        </mxCell>
        <mxCell id="Cb7AMag5DuTGzztELXbn-104" value="" style="endArrow=open;endFill=1;endSize=12;html=1;rounded=0;exitX=1;exitY=0.5;exitDx=0;exitDy=0;entryX=0;entryY=0.5;entryDx=0;entryDy=0;" edge="1" parent="1" source="Cb7AMag5DuTGzztELXbn-100" target="Cb7AMag5DuTGzztELXbn-102">
          <mxGeometry width="160" relative="1" as="geometry">
            <mxPoint x="430" y="710" as="sourcePoint" />
            <mxPoint x="490" y="710" as="targetPoint" />
            <Array as="points" />
          </mxGeometry>
        </mxCell>
        <mxCell id="Cb7AMag5DuTGzztELXbn-105" value="" style="endArrow=open;endFill=1;endSize=12;html=1;rounded=0;exitX=1;exitY=0.5;exitDx=0;exitDy=0;entryX=0;entryY=0.5;entryDx=0;entryDy=0;" edge="1" parent="1" source="Cb7AMag5DuTGzztELXbn-100" target="Cb7AMag5DuTGzztELXbn-101">
          <mxGeometry width="160" relative="1" as="geometry">
            <mxPoint x="384" y="700" as="sourcePoint" />
            <mxPoint x="444" y="700" as="targetPoint" />
            <Array as="points" />
          </mxGeometry>
        </mxCell>
        <mxCell id="Cb7AMag5DuTGzztELXbn-106" value="" style="endArrow=open;endFill=1;endSize=12;html=1;rounded=0;exitX=1;exitY=0.5;exitDx=0;exitDy=0;entryX=0;entryY=0.5;entryDx=0;entryDy=0;" edge="1" parent="1" source="Cb7AMag5DuTGzztELXbn-90" target="Cb7AMag5DuTGzztELXbn-100">
          <mxGeometry width="160" relative="1" as="geometry">
            <mxPoint x="280" y="760" as="sourcePoint" />
            <mxPoint x="340" y="760" as="targetPoint" />
            <Array as="points" />
          </mxGeometry>
        </mxCell>
        <mxCell id="Cb7AMag5DuTGzztELXbn-107" value="Modifier" style="ellipse;whiteSpace=wrap;html=1;" vertex="1" parent="1">
          <mxGeometry x="690" y="645" width="90" height="40" as="geometry" />
        </mxCell>
        <mxCell id="Cb7AMag5DuTGzztELXbn-108" value="Supprimer" style="ellipse;whiteSpace=wrap;html=1;" vertex="1" parent="1">
          <mxGeometry x="685" y="710" width="90" height="40" as="geometry" />
        </mxCell>
        <mxCell id="Cb7AMag5DuTGzztELXbn-109" value="Créer" style="ellipse;whiteSpace=wrap;html=1;" vertex="1" parent="1">
          <mxGeometry x="355" y="510" width="90" height="40" as="geometry" />
        </mxCell>
        <mxCell id="Cb7AMag5DuTGzztELXbn-110" value="Extends" style="endArrow=block;endSize=16;endFill=0;html=1;rounded=0;edgeStyle=orthogonalEdgeStyle;exitX=0.5;exitY=0;exitDx=0;exitDy=0;entryX=0.5;entryY=1;entryDx=0;entryDy=0;" edge="1" parent="1" source="Cb7AMag5DuTGzztELXbn-90" target="Cb7AMag5DuTGzztELXbn-109">
          <mxGeometry width="160" relative="1" as="geometry">
            <mxPoint x="280" y="445" as="sourcePoint" />
            <mxPoint x="492.5" y="450" as="targetPoint" />
          </mxGeometry>
        </mxCell>
        <mxCell id="Cb7AMag5DuTGzztELXbn-111" value="Extends" style="endArrow=block;endSize=16;endFill=0;html=1;rounded=0;edgeStyle=orthogonalEdgeStyle;exitX=1;exitY=0.5;exitDx=0;exitDy=0;entryX=0;entryY=0.5;entryDx=0;entryDy=0;" edge="1" parent="1" source="Cb7AMag5DuTGzztELXbn-101" target="Cb7AMag5DuTGzztELXbn-91">
          <mxGeometry width="160" relative="1" as="geometry">
            <mxPoint x="582.5" y="520" as="sourcePoint" />
            <mxPoint x="740" y="470" as="targetPoint" />
          </mxGeometry>
        </mxCell>
        <mxCell id="Cb7AMag5DuTGzztELXbn-112" value="Extends" style="endArrow=block;endSize=16;endFill=0;html=1;rounded=0;edgeStyle=orthogonalEdgeStyle;exitX=1;exitY=0.5;exitDx=0;exitDy=0;entryX=0;entryY=0.5;entryDx=0;entryDy=0;" edge="1" parent="1" source="Cb7AMag5DuTGzztELXbn-102" target="Cb7AMag5DuTGzztELXbn-107">
          <mxGeometry width="160" relative="1" as="geometry">
            <mxPoint x="610" y="590" as="sourcePoint" />
            <mxPoint x="700" y="590" as="targetPoint" />
          </mxGeometry>
        </mxCell>
        <mxCell id="Cb7AMag5DuTGzztELXbn-113" value="Extends" style="endArrow=block;endSize=16;endFill=0;html=1;rounded=0;exitX=1;exitY=0.5;exitDx=0;exitDy=0;entryX=0;entryY=0.5;entryDx=0;entryDy=0;" edge="1" parent="1" source="Cb7AMag5DuTGzztELXbn-102" target="Cb7AMag5DuTGzztELXbn-108">
          <mxGeometry width="160" relative="1" as="geometry">
            <mxPoint x="610" y="710" as="sourcePoint" />
            <mxPoint x="700" y="710" as="targetPoint" />
          </mxGeometry>
        </mxCell>
        <mxCell id="Cb7AMag5DuTGzztELXbn-114" value="Log in" style="ellipse;whiteSpace=wrap;html=1;" vertex="1" parent="1">
          <mxGeometry x="870" y="505" width="120" height="50" as="geometry" />
        </mxCell>
        <mxCell id="Cb7AMag5DuTGzztELXbn-115" value="Use" style="endArrow=open;endSize=12;dashed=1;html=1;rounded=0;exitX=1;exitY=0.5;exitDx=0;exitDy=0;entryX=0;entryY=0.5;entryDx=0;entryDy=0;" edge="1" parent="1" source="Cb7AMag5DuTGzztELXbn-109" target="Cb7AMag5DuTGzztELXbn-114">
          <mxGeometry width="160" relative="1" as="geometry">
            <mxPoint x="840" y="730" as="sourcePoint" />
            <mxPoint x="950" y="765" as="targetPoint" />
          </mxGeometry>
        </mxCell>
        <mxCell id="Cb7AMag5DuTGzztELXbn-118" value="Use" style="endArrow=open;endSize=12;dashed=1;html=1;rounded=0;exitX=1;exitY=0.5;exitDx=0;exitDy=0;entryX=0.5;entryY=1;entryDx=0;entryDy=0;" edge="1" parent="1" source="Cb7AMag5DuTGzztELXbn-91" target="Cb7AMag5DuTGzztELXbn-114">
          <mxGeometry width="160" relative="1" as="geometry">
            <mxPoint x="850" y="740" as="sourcePoint" />
            <mxPoint x="960" y="775" as="targetPoint" />
          </mxGeometry>
        </mxCell>
        <mxCell id="Cb7AMag5DuTGzztELXbn-119" value="Use" style="endArrow=open;endSize=12;dashed=1;html=1;rounded=0;exitX=1;exitY=0.5;exitDx=0;exitDy=0;entryX=0.5;entryY=1;entryDx=0;entryDy=0;" edge="1" parent="1" source="Cb7AMag5DuTGzztELXbn-107" target="Cb7AMag5DuTGzztELXbn-114">
          <mxGeometry width="160" relative="1" as="geometry">
            <mxPoint x="860" y="750" as="sourcePoint" />
            <mxPoint x="970" y="785" as="targetPoint" />
          </mxGeometry>
        </mxCell>
        <mxCell id="Cb7AMag5DuTGzztELXbn-120" value="Use" style="endArrow=open;endSize=12;dashed=1;html=1;rounded=0;exitX=1;exitY=0.5;exitDx=0;exitDy=0;entryX=0.5;entryY=1;entryDx=0;entryDy=0;" edge="1" parent="1" source="Cb7AMag5DuTGzztELXbn-108" target="Cb7AMag5DuTGzztELXbn-114">
          <mxGeometry width="160" relative="1" as="geometry">
            <mxPoint x="870" y="760" as="sourcePoint" />
            <mxPoint x="980" y="795" as="targetPoint" />
          </mxGeometry>
        </mxCell>
        <mxCell id="Cb7AMag5DuTGzztELXbn-121" value="" style="endArrow=open;endFill=1;endSize=12;html=1;rounded=0;exitX=1;exitY=0.5;exitDx=0;exitDy=0;entryX=0;entryY=0.5;entryDx=0;entryDy=0;" edge="1" parent="1" source="Cb7AMag5DuTGzztELXbn-36" target="Cb7AMag5DuTGzztELXbn-19">
          <mxGeometry width="160" relative="1" as="geometry">
            <mxPoint x="170" y="327.5" as="sourcePoint" />
            <mxPoint x="297.5" y="352.5" as="targetPoint" />
            <Array as="points" />
          </mxGeometry>
        </mxCell>
        <mxCell id="Cb7AMag5DuTGzztELXbn-122" value="" style="endArrow=open;endFill=1;endSize=12;html=1;rounded=0;exitX=0.5;exitY=0.5;exitDx=0;exitDy=0;entryX=0;entryY=0.5;entryDx=0;entryDy=0;exitPerimeter=0;" edge="1" parent="1" source="Cb7AMag5DuTGzztELXbn-2" target="Cb7AMag5DuTGzztELXbn-35">
          <mxGeometry width="160" relative="1" as="geometry">
            <mxPoint x="180" y="337.5" as="sourcePoint" />
            <mxPoint x="307.5" y="362.5" as="targetPoint" />
            <Array as="points" />
          </mxGeometry>
        </mxCell>
        <mxCell id="Cb7AMag5DuTGzztELXbn-123" value="" style="endArrow=open;endFill=1;endSize=12;html=1;rounded=0;exitX=0.5;exitY=0.5;exitDx=0;exitDy=0;entryX=0;entryY=0.5;entryDx=0;entryDy=0;exitPerimeter=0;" edge="1" parent="1" source="Cb7AMag5DuTGzztELXbn-2" target="Cb7AMag5DuTGzztELXbn-36">
          <mxGeometry width="160" relative="1" as="geometry">
            <mxPoint x="190" y="347.5" as="sourcePoint" />
            <mxPoint x="317.5" y="372.5" as="targetPoint" />
            <Array as="points" />
          </mxGeometry>
        </mxCell>
        <mxCell id="Cb7AMag5DuTGzztELXbn-124" value="" style="endArrow=open;endFill=1;endSize=12;html=1;rounded=0;exitX=0.5;exitY=0.5;exitDx=0;exitDy=0;entryX=0;entryY=0.5;entryDx=0;entryDy=0;exitPerimeter=0;" edge="1" parent="1" source="Cb7AMag5DuTGzztELXbn-2" target="Cb7AMag5DuTGzztELXbn-33">
          <mxGeometry width="160" relative="1" as="geometry">
            <mxPoint x="200" y="357.5" as="sourcePoint" />
            <mxPoint x="327.5" y="382.5" as="targetPoint" />
            <Array as="points" />
          </mxGeometry>
        </mxCell>
        <mxCell id="Cb7AMag5DuTGzztELXbn-125" value="" style="endArrow=open;endFill=1;endSize=12;html=1;rounded=0;exitX=1;exitY=0.5;exitDx=0;exitDy=0;entryX=0;entryY=0.5;entryDx=0;entryDy=0;" edge="1" parent="1" source="Cb7AMag5DuTGzztELXbn-33" target="Cb7AMag5DuTGzztELXbn-19">
          <mxGeometry width="160" relative="1" as="geometry">
            <mxPoint x="180" y="337.5" as="sourcePoint" />
            <mxPoint x="307.5" y="362.5" as="targetPoint" />
            <Array as="points" />
          </mxGeometry>
        </mxCell>
        <mxCell id="Cb7AMag5DuTGzztELXbn-126" value="Extends" style="endArrow=block;endSize=16;endFill=0;html=1;rounded=0;exitX=1;exitY=0.5;exitDx=0;exitDy=0;entryX=0;entryY=0.5;entryDx=0;entryDy=0;" edge="1" parent="1" source="Cb7AMag5DuTGzztELXbn-35" target="Cb7AMag5DuTGzztELXbn-22">
          <mxGeometry width="160" relative="1" as="geometry">
            <mxPoint x="302.5" y="320" as="sourcePoint" />
            <mxPoint x="490" y="250" as="targetPoint" />
          </mxGeometry>
        </mxCell>
        <mxCell id="Cb7AMag5DuTGzztELXbn-127" value="Extends" style="endArrow=block;endSize=16;endFill=0;html=1;rounded=0;exitX=1;exitY=0.5;exitDx=0;exitDy=0;entryX=0;entryY=0.5;entryDx=0;entryDy=0;" edge="1" parent="1" source="Cb7AMag5DuTGzztELXbn-19" target="Cb7AMag5DuTGzztELXbn-21">
          <mxGeometry width="160" relative="1" as="geometry">
            <mxPoint x="440" y="150" as="sourcePoint" />
            <mxPoint x="690" y="130" as="targetPoint" />
          </mxGeometry>
        </mxCell>
        <mxCell id="Cb7AMag5DuTGzztELXbn-129" value="Extends" style="endArrow=block;endSize=16;endFill=0;html=1;rounded=0;exitX=1;exitY=0.5;exitDx=0;exitDy=0;entryX=0;entryY=0.5;entryDx=0;entryDy=0;" edge="1" parent="1" source="Cb7AMag5DuTGzztELXbn-19" target="Cb7AMag5DuTGzztELXbn-22">
          <mxGeometry width="160" relative="1" as="geometry">
            <mxPoint x="435" y="145" as="sourcePoint" />
            <mxPoint x="530" y="110" as="targetPoint" />
          </mxGeometry>
        </mxCell>
        <mxCell id="Cb7AMag5DuTGzztELXbn-130" value="Use" style="endArrow=open;endSize=12;dashed=1;html=1;rounded=0;exitX=1;exitY=0.5;exitDx=0;exitDy=0;entryX=0;entryY=0.5;entryDx=0;entryDy=0;" edge="1" parent="1" source="Cb7AMag5DuTGzztELXbn-21" target="Cb7AMag5DuTGzztELXbn-37">
          <mxGeometry width="160" relative="1" as="geometry">
            <mxPoint x="510" y="380" as="sourcePoint" />
            <mxPoint x="710" y="380" as="targetPoint" />
          </mxGeometry>
        </mxCell>
        <mxCell id="Cb7AMag5DuTGzztELXbn-131" value="Use" style="endArrow=open;endSize=12;dashed=1;html=1;rounded=0;exitX=1;exitY=0.5;exitDx=0;exitDy=0;entryX=0;entryY=0.5;entryDx=0;entryDy=0;" edge="1" parent="1" source="Cb7AMag5DuTGzztELXbn-22" target="Cb7AMag5DuTGzztELXbn-37">
          <mxGeometry width="160" relative="1" as="geometry">
            <mxPoint x="640" y="230" as="sourcePoint" />
            <mxPoint x="750" y="340" as="targetPoint" />
          </mxGeometry>
        </mxCell>
      </root>
    </mxGraphModel>
  </diagram>
</mxfile>
